STARTFONT 2.1
FONT -Bitstream-Terminal-Medium-R-Wide--18-140-100-100-C-140-DEC-DECtech
SIZE 14 100 100
FONTBOUNDINGBOX 14 20 0 -5

STARTPROPERTIES 25
CHARSET_REGISTRY "DEC"
CHARSET_ENCODING "DECtech"
CAP_HEIGHT 11
X_HEIGHT 9
AVERAGE_WIDTH 140
FONTNAME_REGISTRY ""
FAMILY_NAME "Terminal"
FOUNDRY "Bitstream"
WEIGHT_NAME "Medium"
SETWIDTH_NAME "Wide"
SLANT "R"
ADD_STYLE_NAME ""
PIXEL_SIZE 18
POINT_SIZE 140
RESOLUTION_X 100
RESOLUTION_Y 100
SPACING "C"
CHARSET_COLLECTIONS "DEC-DECtech"
FULL_NAME "Terminal Wide"
COPYRIGHT "Copyright (c) 1988 Bitstream, Inc., Copyright 1990 Digital Equipment Corp. All rights reserved."
WEIGHT 10
QUAD_WIDTH 14
DEFAULT_CHAR 159
FONT_DESCENT 5
FONT_ASCENT 15
ENDPROPERTIES

CHARS 181

STARTCHAR space
ENCODING 32
SWIDTH 720 0
DWIDTH 14 0
BBX 1 1 0 0
BITMAP
00
ENDCHAR

STARTCHAR exclam
ENCODING 33
SWIDTH 720 0
DWIDTH 14 0
BBX 6 11 4 0
BITMAP
30
30
30
30
30
30
30
00
30
FC
30
ENDCHAR

STARTCHAR quotedbl
ENCODING 34
SWIDTH 720 0
DWIDTH 14 0
BBX 6 4 4 7
BITMAP
CC
CC
CC
CC
ENDCHAR

STARTCHAR numbersign
ENCODING 35
SWIDTH 720 0
DWIDTH 14 0
BBX 12 12 1 -1
BITMAP
1980
1980
1980
1980
FFF0
1980
1980
FFF0
1980
1980
1980
1980
ENDCHAR

STARTCHAR dollar
ENCODING 36
SWIDTH 720 0
DWIDTH 14 0
BBX 10 15 2 -3
BITMAP
0C00
0C00
7EC0
E1C0
C0C0
E000
7C00
0780
00C0
C0C0
E1C0
DF80
0C00
0C00
0C00
ENDCHAR

STARTCHAR percent
ENCODING 37
SWIDTH 720 0
DWIDTH 14 0
BBX 12 13 1 -1
BITMAP
7C00
C600
C600
C600
7C60
01C0
0F00
3800
63E0
0630
0630
0630
03E0
ENDCHAR

STARTCHAR ampersand
ENCODING 38
SWIDTH 720 0
DWIDTH 14 0
BBX 10 11 2 0
BITMAP
1F00
3300
3000
3000
1800
78C0
CC80
C780
C300
E780
7CC0
ENDCHAR

STARTCHAR quoteright
ENCODING 39
SWIDTH 720 0
DWIDTH 14 0
BBX 5 4 4 7
BITMAP
38
70
60
C0
ENDCHAR

STARTCHAR parenleft
ENCODING 40
SWIDTH 720 0
DWIDTH 14 0
BBX 6 16 4 -3
BITMAP
0C
18
30
60
60
C0
C0
C0
C0
C0
C0
60
60
30
18
0C
ENDCHAR

STARTCHAR parenright
ENCODING 41
SWIDTH 720 0
DWIDTH 14 0
BBX 6 16 4 -3
BITMAP
C0
60
30
18
18
0C
0C
0C
0C
0C
0C
18
18
30
60
C0
ENDCHAR

STARTCHAR asterisk
ENCODING 42
SWIDTH 720 0
DWIDTH 14 0
BBX 10 6 2 3
BITMAP
0C00
CCC0
3F00
0C00
3F00
C0C0
ENDCHAR

STARTCHAR plus
ENCODING 43
SWIDTH 720 0
DWIDTH 14 0
BBX 10 7 2 2
BITMAP
0C00
0C00
0C00
FFC0
0C00
0C00
0C00
ENDCHAR

STARTCHAR comma
ENCODING 44
SWIDTH 720 0
DWIDTH 14 0
BBX 7 4 3 -2
BITMAP
1E
38
70
C0
ENDCHAR

STARTCHAR minus
ENCODING 45
SWIDTH 720 0
DWIDTH 14 0
BBX 10 1 2 5
BITMAP
FFC0
ENDCHAR

STARTCHAR period
ENCODING 46
SWIDTH 720 0
DWIDTH 14 0
BBX 6 3 4 0
BITMAP
30
FC
30
ENDCHAR

STARTCHAR slash
ENCODING 47
SWIDTH 720 0
DWIDTH 14 0
BBX 7 13 4 -1
BITMAP
06
06
0E
0C
0C
18
18
30
30
60
60
C0
C0
ENDCHAR

STARTCHAR zero
ENCODING 48
SWIDTH 720 0
DWIDTH 14 0
BBX 8 11 3 0
BITMAP
3C
66
42
C3
C3
C3
C3
C3
42
66
3C
ENDCHAR

STARTCHAR one
ENCODING 49
SWIDTH 720 0
DWIDTH 14 0
BBX 8 11 3 0
BITMAP
18
38
58
98
18
18
18
18
18
18
FF
ENDCHAR

STARTCHAR two
ENCODING 50
SWIDTH 720 0
DWIDTH 14 0
BBX 9 11 2 0
BITMAP
3E00
C300
C180
0180
0300
0600
0C00
1800
3000
6180
FF80
ENDCHAR

STARTCHAR three
ENCODING 51
SWIDTH 720 0
DWIDTH 14 0
BBX 9 11 2 0
BITMAP
3E00
C300
0180
0180
0300
1E00
0300
0180
0180
C300
3E00
ENDCHAR

STARTCHAR four
ENCODING 52
SWIDTH 720 0
DWIDTH 14 0
BBX 10 11 2 0
BITMAP
0700
0F00
1B00
3300
3300
6300
C300
FFC0
0300
0300
1FC0
ENDCHAR

STARTCHAR five
ENCODING 53
SWIDTH 720 0
DWIDTH 14 0
BBX 9 11 3 0
BITMAP
FF80
C000
C000
C000
FE00
C300
0180
0180
0180
C300
3E00
ENDCHAR

STARTCHAR six
ENCODING 54
SWIDTH 720 0
DWIDTH 14 0
BBX 9 11 3 0
BITMAP
0E00
3000
6000
4000
DE00
E300
C180
C180
C180
6300
3E00
ENDCHAR

STARTCHAR seven
ENCODING 55
SWIDTH 720 0
DWIDTH 14 0
BBX 9 11 3 0
BITMAP
FF80
C180
0300
0300
0600
0C00
0C00
1800
3000
3000
6000
ENDCHAR

STARTCHAR eight
ENCODING 56
SWIDTH 720 0
DWIDTH 14 0
BBX 9 11 3 0
BITMAP
3E00
6300
C180
C180
6300
3E00
6300
C180
C180
6300
3E00
ENDCHAR

STARTCHAR nine
ENCODING 57
SWIDTH 720 0
DWIDTH 14 0
BBX 9 11 3 0
BITMAP
3E00
6300
C180
C180
C180
6380
3D80
0100
0300
0600
7800
ENDCHAR

STARTCHAR colon
ENCODING 58
SWIDTH 720 0
DWIDTH 14 0
BBX 6 8 4 0
BITMAP
30
FC
30
00
00
30
FC
30
ENDCHAR

STARTCHAR semicolon
ENCODING 59
SWIDTH 720 0
DWIDTH 14 0
BBX 7 10 3 -2
BITMAP
18
7E
18
00
00
00
1E
38
70
C0
ENDCHAR

STARTCHAR less
ENCODING 60
SWIDTH 720 0
DWIDTH 14 0
BBX 10 9 2 1
BITMAP
00C0
0300
0C00
3000
C000
3000
0C00
0300
00C0
ENDCHAR

STARTCHAR equal
ENCODING 61
SWIDTH 720 0
DWIDTH 14 0
BBX 10 4 2 4
BITMAP
FFC0
0000
0000
FFC0
ENDCHAR

STARTCHAR greater
ENCODING 62
SWIDTH 720 0
DWIDTH 14 0
BBX 10 9 2 1
BITMAP
C000
3000
0C00
0300
00C0
0300
0C00
3000
C000
ENDCHAR

STARTCHAR question
ENCODING 63
SWIDTH 720 0
DWIDTH 14 0
BBX 10 11 2 0
BITMAP
3F80
C0C0
C0C0
0180
0700
0C00
0C00
0000
0C00
3F00
0C00
ENDCHAR

STARTCHAR at
ENCODING 64
SWIDTH 720 0
DWIDTH 14 0
BBX 12 14 1 -2
BITMAP
3F00
6180
C0C0
C0C0
C7C0
CCC0
CCC0
CCC0
CCC0
C7F0
C000
6000
7060
1FC0
ENDCHAR

STARTCHAR A
ENCODING 65
SWIDTH 720 0
DWIDTH 14 0
BBX 14 11 0 0
BITMAP
0780
0780
0CC0
0CC0
0CC0
1860
1860
3FF0
3030
3030
FCFC
ENDCHAR

STARTCHAR B
ENCODING 66
SWIDTH 720 0
DWIDTH 14 0
BBX 12 11 1 0
BITMAP
FFE0
3030
3030
3030
3030
3FE0
3030
3030
3030
3030
FFE0
ENDCHAR

STARTCHAR C
ENCODING 67
SWIDTH 720 0
DWIDTH 14 0
BBX 10 11 2 0
BITMAP
3EC0
61C0
C0C0
C000
C000
C000
C000
C000
C000
60C0
3F00
ENDCHAR

STARTCHAR D
ENCODING 68
SWIDTH 720 0
DWIDTH 14 0
BBX 12 11 1 0
BITMAP
FFC0
3060
3030
3030
3030
3030
3030
3030
3030
3060
FFC0
ENDCHAR

STARTCHAR E
ENCODING 69
SWIDTH 720 0
DWIDTH 14 0
BBX 12 11 1 0
BITMAP
FFF0
3030
3030
3000
3080
3F80
3080
3000
3030
3030
FFF0
ENDCHAR

STARTCHAR F
ENCODING 70
SWIDTH 720 0
DWIDTH 14 0
BBX 12 11 1 0
BITMAP
FFF0
3030
3030
3000
3080
3F80
3080
3000
3000
3000
FC00
ENDCHAR

STARTCHAR G
ENCODING 71
SWIDTH 720 0
DWIDTH 14 0
BBX 11 11 1 0
BITMAP
3EC0
61C0
C0C0
C000
C000
C000
C3E0
C0C0
C0C0
60C0
3F80
ENDCHAR

STARTCHAR H
ENCODING 72
SWIDTH 720 0
DWIDTH 14 0
BBX 14 11 0 0
BITMAP
FCFC
3030
3030
3030
3030
3FF0
3030
3030
3030
3030
FCFC
ENDCHAR

STARTCHAR I
ENCODING 73
SWIDTH 720 0
DWIDTH 14 0
BBX 10 11 2 0
BITMAP
FFC0
0C00
0C00
0C00
0C00
0C00
0C00
0C00
0C00
0C00
FFC0
ENDCHAR

STARTCHAR J
ENCODING 74
SWIDTH 720 0
DWIDTH 14 0
BBX 12 11 1 0
BITMAP
0FF0
00C0
00C0
00C0
00C0
00C0
C0C0
C0C0
C0C0
E180
3F00
ENDCHAR

STARTCHAR K
ENCODING 75
SWIDTH 720 0
DWIDTH 14 0
BBX 14 11 0 0
BITMAP
FC70
30E0
3180
3300
3700
3D80
38C0
3060
3060
3030
FC3C
ENDCHAR

STARTCHAR L
ENCODING 76
SWIDTH 720 0
DWIDTH 14 0
BBX 12 11 1 0
BITMAP
FC00
3000
3000
3000
3000
3000
3000
3030
3030
3030
FFF0
ENDCHAR

STARTCHAR M
ENCODING 77
SWIDTH 720 0
DWIDTH 14 0
BBX 14 11 0 0
BITMAP
F03C
3030
3870
3870
34B0
34B0
3330
3330
3030
3030
FCFC
ENDCHAR

STARTCHAR N
ENCODING 78
SWIDTH 720 0
DWIDTH 14 0
BBX 14 11 0 0
BITMAP
F8FC
3830
3C30
3630
3230
3330
31B0
30B0
30F0
3070
FC30
ENDCHAR

STARTCHAR O
ENCODING 79
SWIDTH 720 0
DWIDTH 14 0
BBX 10 11 2 0
BITMAP
3F00
6180
C0C0
C0C0
C0C0
C0C0
C0C0
C0C0
C0C0
6180
3F00
ENDCHAR

STARTCHAR P
ENCODING 80
SWIDTH 720 0
DWIDTH 14 0
BBX 12 11 1 0
BITMAP
FFE0
3030
3030
3030
3030
3030
3FE0
3000
3000
3000
FF00
ENDCHAR

STARTCHAR Q
ENCODING 81
SWIDTH 720 0
DWIDTH 14 0
BBX 10 14 2 -3
BITMAP
3F00
6180
C0C0
C0C0
C0C0
C0C0
C0C0
C0C0
C0C0
6180
3F00
1000
7CC0
C780
ENDCHAR

STARTCHAR R
ENCODING 82
SWIDTH 720 0
DWIDTH 14 0
BBX 14 11 0 0
BITMAP
FFE0
3030
3030
3030
3030
3FE0
30C0
3060
3060
3030
FC3C
ENDCHAR

STARTCHAR S
ENCODING 83
SWIDTH 720 0
DWIDTH 14 0
BBX 10 11 2 0
BITMAP
3EC0
E1C0
C0C0
C000
E000
7F80
01C0
C0C0
C0C0
E1C0
DF80
ENDCHAR

STARTCHAR T
ENCODING 84
SWIDTH 720 0
DWIDTH 14 0
BBX 12 11 1 0
BITMAP
FFF0
C630
C630
C630
0600
0600
0600
0600
0600
0600
3FC0
ENDCHAR

STARTCHAR U
ENCODING 85
SWIDTH 720 0
DWIDTH 14 0
BBX 14 11 0 0
BITMAP
FCFC
3030
3030
3030
3030
3030
3030
3030
3030
1860
0FC0
ENDCHAR

STARTCHAR V
ENCODING 86
SWIDTH 720 0
DWIDTH 14 0
BBX 14 11 0 0
BITMAP
FCFC
3030
3030
1860
1860
1860
0CC0
0CC0
0480
0780
0300
ENDCHAR

STARTCHAR W
ENCODING 87
SWIDTH 720 0
DWIDTH 14 0
BBX 14 11 0 0
BITMAP
F03C
C00C
C30C
C30C
C78C
6498
6CD8
6858
7878
3030
3030
ENDCHAR

STARTCHAR X
ENCODING 88
SWIDTH 720 0
DWIDTH 14 0
BBX 14 11 0 0
BITMAP
F03C
3030
1860
0CC0
0780
0300
0780
0CC0
1860
3030
F03C
ENDCHAR

STARTCHAR Y
ENCODING 89
SWIDTH 720 0
DWIDTH 14 0
BBX 14 11 0 0
BITMAP
FCFC
3030
1860
1860
0CC0
0480
0780
0300
0300
0300
0FC0
ENDCHAR

STARTCHAR Z
ENCODING 90
SWIDTH 720 0
DWIDTH 14 0
BBX 10 11 2 0
BITMAP
FFC0
C0C0
C180
C300
0600
0C00
1800
30C0
60C0
C0C0
FFC0
ENDCHAR

STARTCHAR bracketleft
ENCODING 91
SWIDTH 720 0
DWIDTH 14 0
BBX 6 16 4 -3
BITMAP
FC
C0
C0
C0
C0
C0
C0
C0
C0
C0
C0
C0
C0
C0
C0
FC
ENDCHAR

STARTCHAR backslash
ENCODING 92
SWIDTH 720 0
DWIDTH 14 0
BBX 8 13 3 -1
BITMAP
C0
C0
60
70
30
18
18
0C
0C
06
06
03
03
ENDCHAR

STARTCHAR bracketright
ENCODING 93
SWIDTH 720 0
DWIDTH 14 0
BBX 6 16 4 -3
BITMAP
FC
0C
0C
0C
0C
0C
0C
0C
0C
0C
0C
0C
0C
0C
0C
FC
ENDCHAR

STARTCHAR asciicircum
ENCODING 94
SWIDTH 720 0
DWIDTH 14 0
BBX 10 3 2 6
BITMAP
0C00
3F00
C0C0
ENDCHAR

STARTCHAR ldblank
ENCODING 95
SWIDTH 720 0
DWIDTH 14 0
BBX 1 1 0 0
BITMAP
00
ENDCHAR

STARTCHAR diamond
ENCODING 96
SWIDTH 720 0
DWIDTH 14 0
BBX 12 11 1 0
BITMAP
0600
0F00
1F80
3FC0
7FE0
FFF0
7FE0
3FC0
1F80
0F00
0600
ENDCHAR

STARTCHAR checkerboard
ENCODING 97
SWIDTH 720 0
DWIDTH 14 0
BBX 14 20 0 -5
BITMAP
AAA8
5554
AAA8
5554
AAA8
5554
AAA8
5554
AAA8
5554
AAA8
5554
AAA8
5554
AAA8
5554
AAA8
5554
AAA8
5554
ENDCHAR

STARTCHAR HT
ENCODING 98
SWIDTH 720 0
DWIDTH 14 0
BBX 12 13 1 -1
BITMAP
CC00
CC00
FC00
CC00
CC00
CC00
0000
03F0
00C0
00C0
00C0
00C0
00C0
ENDCHAR

STARTCHAR FF
ENCODING 99
SWIDTH 720 0
DWIDTH 14 0
BBX 12 13 1 -1
BITMAP
FC00
C000
FC00
C000
C000
C000
0000
03F0
0300
03F0
0300
0300
0300
ENDCHAR

STARTCHAR CR
ENCODING 100
SWIDTH 720 0
DWIDTH 14 0
BBX 12 13 1 -1
BITMAP
3C00
C300
C000
C000
C300
3C00
0000
03F0
0330
0330
03C0
0330
0330
ENDCHAR

STARTCHAR LF
ENCODING 101
SWIDTH 720 0
DWIDTH 14 0
BBX 12 13 1 -1
BITMAP
C000
C000
C000
C000
C000
FC00
0000
03F0
0300
03F0
0300
0300
0300
ENDCHAR

STARTCHAR degree
ENCODING 102
SWIDTH 720 0
DWIDTH 14 0
BBX 8 4 3 7
BITMAP
7E
C3
C3
7E
ENDCHAR

STARTCHAR plusminus
ENCODING 103
SWIDTH 720 0
DWIDTH 14 0
BBX 10 10 2 0
BITMAP
0C00
0C00
0C00
FFC0
0C00
0C00
0C00
0000
0000
FFC0
ENDCHAR

STARTCHAR NL
ENCODING 104
SWIDTH 720 0
DWIDTH 14 0
BBX 12 13 1 -1
BITMAP
C600
E600
F600
DE00
CE00
C600
0000
0180
0180
0180
0180
0180
01F0
ENDCHAR

STARTCHAR VT
ENCODING 105
SWIDTH 720 0
DWIDTH 14 0
BBX 12 13 1 -1
BITMAP
CC00
CC00
CC00
CC00
3000
3000
0000
03F0
00C0
00C0
00C0
00C0
00C0
ENDCHAR

STARTCHAR ldcornsqlr
ENCODING 106
SWIDTH 720 0
DWIDTH 14 0
BBX 8 11 0 4
BITMAP
03
03
03
03
03
03
03
03
03
03
FF
ENDCHAR

STARTCHAR ldcornsqur
ENCODING 107
SWIDTH 720 0
DWIDTH 14 0
BBX 8 10 0 -5
BITMAP
FF
03
03
03
03
03
03
03
03
03
ENDCHAR

STARTCHAR ldcornsqul
ENCODING 108
SWIDTH 720 0
DWIDTH 14 0
BBX 8 10 6 -5
BITMAP
FF
C0
C0
C0
C0
C0
C0
C0
C0
C0
ENDCHAR

STARTCHAR ldcornsqll
ENCODING 109
SWIDTH 720 0
DWIDTH 14 0
BBX 8 11 6 4
BITMAP
C0
C0
C0
C0
C0
C0
C0
C0
C0
C0
FF
ENDCHAR

STARTCHAR ldcross
ENCODING 110
SWIDTH 720 0
DWIDTH 14 0
BBX 14 20 0 -5
BITMAP
0300
0300
0300
0300
0300
0300
0300
0300
0300
0300
FFFC
0300
0300
0300
0300
0300
0300
0300
0300
0300
ENDCHAR

STARTCHAR ldscan1
ENCODING 111
SWIDTH 720 0
DWIDTH 14 0
BBX 14 1 0 12
BITMAP
FFFC
ENDCHAR

STARTCHAR ldscan3
ENCODING 112
SWIDTH 720 0
DWIDTH 14 0
BBX 14 1 0 8
BITMAP
FFFC
ENDCHAR

STARTCHAR ldhorizontal
ENCODING 113
SWIDTH 720 0
DWIDTH 14 0
BBX 14 1 0 4
BITMAP
FFFC
ENDCHAR

STARTCHAR ldscan7
ENCODING 114
SWIDTH 720 0
DWIDTH 14 0
BBX 14 1 0 0
BITMAP
FFFC
ENDCHAR

STARTCHAR ldscan9
ENCODING 115
SWIDTH 720 0
DWIDTH 14 0
BBX 14 1 0 -4
BITMAP
FFFC
ENDCHAR

STARTCHAR ldteelft
ENCODING 116
SWIDTH 720 0
DWIDTH 14 0
BBX 8 20 6 -5
BITMAP
C0
C0
C0
C0
C0
C0
C0
C0
C0
C0
FF
C0
C0
C0
C0
C0
C0
C0
C0
C0
ENDCHAR

STARTCHAR ldteert
ENCODING 117
SWIDTH 720 0
DWIDTH 14 0
BBX 8 20 0 -5
BITMAP
03
03
03
03
03
03
03
03
03
03
FF
03
03
03
03
03
03
03
03
03
ENDCHAR

STARTCHAR ldteebt
ENCODING 118
SWIDTH 720 0
DWIDTH 14 0
BBX 14 11 0 4
BITMAP
0300
0300
0300
0300
0300
0300
0300
0300
0300
0300
FFFC
ENDCHAR

STARTCHAR ldteetp
ENCODING 119
SWIDTH 720 0
DWIDTH 14 0
BBX 14 10 0 -5
BITMAP
FFFC
0300
0300
0300
0300
0300
0300
0300
0300
0300
ENDCHAR

STARTCHAR ldvertical
ENCODING 120
SWIDTH 720 0
DWIDTH 14 0
BBX 2 20 6 -5
BITMAP
C0
C0
C0
C0
C0
C0
C0
C0
C0
C0
C0
C0
C0
C0
C0
C0
C0
C0
C0
C0
ENDCHAR

STARTCHAR lessequal
ENCODING 121
SWIDTH 720 0
DWIDTH 14 0
BBX 10 9 2 1
BITMAP
01C0
1E00
E000
E000
1E00
01C0
0000
0000
FFC0
ENDCHAR

STARTCHAR greaterequal
ENCODING 122
SWIDTH 720 0
DWIDTH 14 0
BBX 10 9 2 1
BITMAP
E000
1E00
01C0
01C0
1E00
E000
0000
0000
FFC0
ENDCHAR

STARTCHAR pi
ENCODING 123
SWIDTH 720 0
DWIDTH 14 0
BBX 12 9 2 0
BITMAP
FFF0
30C0
30C0
6180
6180
6180
C300
C300
C3C0
ENDCHAR

STARTCHAR notequal
ENCODING 124
SWIDTH 720 0
DWIDTH 14 0
BBX 10 8 2 2
BITMAP
0300
0300
FFC0
0C00
0C00
FFC0
3000
3000
ENDCHAR

STARTCHAR sterling
ENCODING 125
SWIDTH 720 0
DWIDTH 14 0
BBX 11 11 2 0
BITMAP
0E00
1980
3180
3000
1000
FF80
1800
1800
1800
3E60
C7C0
ENDCHAR

STARTCHAR periodcentered
ENCODING 126
SWIDTH 720 0
DWIDTH 14 0
BBX 6 3 4 4
BITMAP
30
FC
30
ENDCHAR

STARTCHAR Error
ENCODING 159
SWIDTH 720 0
DWIDTH 14 0
BBX 11 19 2 -4
BITMAP
3F80
7FC0
E1E0
E0E0
E0E0
F000
7800
3C00
1C00
0E00
0E00
0E00
0E00
0000
0000
0E00
3F80
3F80
0E00
ENDCHAR

STARTCHAR ldradicalbt
ENCODING 161
SWIDTH 720 0
DWIDTH 14 0
BBX 8 13 0 2
BITMAP
03
03
03
03
03
03
03
33
7B
9F
0F
07
03
ENDCHAR

STARTCHAR ldradicaltp
ENCODING 162
SWIDTH 720 0
DWIDTH 14 0
BBX 8 10 6 -5
BITMAP
FF
C0
C0
C0
C0
C0
C0
C0
C0
C0
ENDCHAR

STARTCHAR ldhorizontal
ENCODING 163
SWIDTH 720 0
DWIDTH 14 0
BBX 14 1 0 4
BITMAP
FFFC
ENDCHAR

STARTCHAR ldintegraltp
ENCODING 164
SWIDTH 720 0
DWIDTH 14 0
BBX 6 18 6 -5
BITMAP
78
C4
C4
C0
C0
C0
C0
C0
C0
C0
C0
C0
C0
C0
C0
C0
C0
C0
ENDCHAR

STARTCHAR ldintegralbt
ENCODING 165
SWIDTH 720 0
DWIDTH 14 0
BBX 6 18 2 -3
BITMAP
0C
0C
0C
0C
0C
0C
0C
0C
0C
0C
0C
0C
0C
0C
0C
8C
8C
78
ENDCHAR

STARTCHAR ldvertical
ENCODING 166
SWIDTH 720 0
DWIDTH 14 0
BBX 2 20 6 -5
BITMAP
C0
C0
C0
C0
C0
C0
C0
C0
C0
C0
C0
C0
C0
C0
C0
C0
C0
C0
C0
C0
ENDCHAR

STARTCHAR ldbracketlfttp
ENCODING 167
SWIDTH 720 0
DWIDTH 14 0
BBX 7 18 6 -5
BITMAP
FE
C0
C0
C0
C0
C0
C0
C0
C0
C0
C0
C0
C0
C0
C0
C0
C0
C0
ENDCHAR

STARTCHAR ldbracketlftbt
ENCODING 168
SWIDTH 720 0
DWIDTH 14 0
BBX 7 18 6 -3
BITMAP
C0
C0
C0
C0
C0
C0
C0
C0
C0
C0
C0
C0
C0
C0
C0
C0
C0
FE
ENDCHAR

STARTCHAR ldbracketrttp
ENCODING 169
SWIDTH 720 0
DWIDTH 14 0
BBX 7 18 1 -5
BITMAP
FE
06
06
06
06
06
06
06
06
06
06
06
06
06
06
06
06
06
ENDCHAR

STARTCHAR ldbracketrtbt
ENCODING 170
SWIDTH 720 0
DWIDTH 14 0
BBX 7 18 1 -3
BITMAP
06
06
06
06
06
06
06
06
06
06
06
06
06
06
06
06
06
FE
ENDCHAR

STARTCHAR ldbracelfttp
ENCODING 171
SWIDTH 720 0
DWIDTH 14 0
BBX 8 18 6 -5
BITMAP
0F
38
60
60
C0
C0
C0
C0
C0
C0
C0
C0
C0
C0
C0
C0
C0
C0
ENDCHAR

STARTCHAR ldbracelftbt
ENCODING 172
SWIDTH 720 0
DWIDTH 14 0
BBX 8 18 6 -3
BITMAP
C0
C0
C0
C0
C0
C0
C0
C0
C0
C0
C0
C0
C0
C0
60
60
38
0F
ENDCHAR

STARTCHAR ldbracerttp
ENCODING 173
SWIDTH 720 0
DWIDTH 14 0
BBX 8 18 0 -5
BITMAP
F0
1C
06
06
03
03
03
03
03
03
03
03
03
03
03
03
03
03
ENDCHAR

STARTCHAR ldbracertbt
ENCODING 174
SWIDTH 720 0
DWIDTH 14 0
BBX 8 18 0 -3
BITMAP
03
03
03
03
03
03
03
03
03
03
03
03
03
03
06
06
1C
F0
ENDCHAR

STARTCHAR ldbracelftmid
ENCODING 175
SWIDTH 720 0
DWIDTH 14 0
BBX 6 20 2 -5
BITMAP
0C
0C
0C
0C
0C
0C
0C
0C
0C
38
E0
38
0C
0C
0C
0C
0C
0C
0C
0C
ENDCHAR

STARTCHAR ldbracertmid
ENCODING 176
SWIDTH 720 0
DWIDTH 14 0
BBX 6 20 6 -5
BITMAP
C0
C0
C0
C0
C0
C0
C0
C0
C0
70
1C
70
C0
C0
C0
C0
C0
C0
C0
C0
ENDCHAR

STARTCHAR ldsigmalfttp
ENCODING 177
SWIDTH 720 0
DWIDTH 14 0
BBX 8 10 6 -5
BITMAP
FF
C0
60
30
10
18
0C
04
06
03
ENDCHAR

STARTCHAR ldsigmalftbt
ENCODING 178
SWIDTH 720 0
DWIDTH 14 0
BBX 8 11 6 4
BITMAP
01
03
06
04
0C
18
30
20
60
C0
FF
ENDCHAR

STARTCHAR ldbackslash
ENCODING 179
SWIDTH 720 0
DWIDTH 14 0
BBX 14 20 0 -5
BITMAP
8000
C000
4000
6000
3000
1000
1800
0C00
0400
0600
0200
0300
0180
0080
00C0
0060
0030
0010
0018
000C
ENDCHAR

STARTCHAR ldslash
ENCODING 180
SWIDTH 720 0
DWIDTH 14 0
BBX 14 20 0 -5
BITMAP
0004
000C
0018
0010
0030
0060
00C0
0080
0180
0300
0200
0600
0C00
0800
1800
3000
6000
4000
C000
8000
ENDCHAR

STARTCHAR ldsigmarttp
ENCODING 181
SWIDTH 720 0
DWIDTH 14 0
BBX 13 4 0 1
BITMAP
FFF8
0018
0018
0018
ENDCHAR

STARTCHAR ldsigmartbt
ENCODING 182
SWIDTH 720 0
DWIDTH 14 0
BBX 13 4 0 4
BITMAP
0018
0018
0018
FFF8
ENDCHAR

STARTCHAR ldsigmamid
ENCODING 183
SWIDTH 720 0
DWIDTH 14 0
BBX 7 20 0 -5
BITMAP
80
C0
40
60
30
10
18
0C
04
06
02
06
04
0C
18
30
20
60
C0
80
ENDCHAR

STARTCHAR lessequal
ENCODING 188
SWIDTH 720 0
DWIDTH 14 0
BBX 10 9 2 1
BITMAP
01C0
1E00
E000
E000
1E00
01C0
0000
0000
FFC0
ENDCHAR

STARTCHAR notequal
ENCODING 189
SWIDTH 720 0
DWIDTH 14 0
BBX 10 8 2 2
BITMAP
0300
0300
FFC0
0C00
0C00
FFC0
3000
3000
ENDCHAR

STARTCHAR greaterequal
ENCODING 190
SWIDTH 720 0
DWIDTH 14 0
BBX 10 9 2 1
BITMAP
E000
1E00
01C0
01C0
1E00
E000
0000
0000
FFC0
ENDCHAR

STARTCHAR integral
ENCODING 191
SWIDTH 720 0
DWIDTH 14 0
BBX 10 18 2 -4
BITMAP
0780
0C40
0C00
0C00
0C00
0C00
0C00
0C00
0C00
0C00
0C00
0C00
0C00
0C00
0C00
0C00
8C00
7800
ENDCHAR

STARTCHAR therefore
ENCODING 192
SWIDTH 720 0
DWIDTH 14 0
BBX 14 9 0 0
BITMAP
0300
0FC0
0300
0000
0000
0000
3030
FCFC
3030
ENDCHAR

STARTCHAR proportional
ENCODING 193
SWIDTH 720 0
DWIDTH 14 0
BBX 12 7 1 2
BITMAP
3C70
C380
C300
C300
C300
C380
3C70
ENDCHAR

STARTCHAR infinity
ENCODING 194
SWIDTH 720 0
DWIDTH 14 0
BBX 14 7 0 2
BITMAP
3CF0
C30C
C30C
C30C
C30C
C30C
3CF0
ENDCHAR

STARTCHAR divide
ENCODING 195
SWIDTH 720 0
DWIDTH 14 0
BBX 10 7 2 2
BITMAP
0C00
0C00
0000
FFC0
0000
0C00
0C00
ENDCHAR

STARTCHAR Delta
ENCODING 196
SWIDTH 720 0
DWIDTH 14 0
BBX 12 11 1 0
BITMAP
0600
0600
0F00
0F00
1980
1980
30C0
30C0
6060
6060
FFF0
ENDCHAR

STARTCHAR gradient
ENCODING 197
SWIDTH 720 0
DWIDTH 14 0
BBX 12 11 1 0
BITMAP
FFF0
6060
6060
30C0
30C0
1980
1980
0F00
0F00
0600
0600
ENDCHAR

STARTCHAR Phi
ENCODING 198
SWIDTH 720 0
DWIDTH 14 0
BBX 10 11 2 0
BITMAP
3F00
0C00
3F00
CCC0
CCC0
CCC0
CCC0
CCC0
3F00
0C00
3F00
ENDCHAR

STARTCHAR Gamma
ENCODING 199
SWIDTH 720 0
DWIDTH 14 0
BBX 10 11 2 0
BITMAP
FFC0
30C0
30C0
3000
3000
3000
3000
3000
3000
3000
FF00
ENDCHAR

STARTCHAR similar
ENCODING 200
SWIDTH 720 0
DWIDTH 14 0
BBX 10 3 2 4
BITMAP
7840
CCC0
8780
ENDCHAR

STARTCHAR approxequal
ENCODING 201
SWIDTH 720 0
DWIDTH 14 0
BBX 10 5 2 2
BITMAP
7840
CCC0
8780
0000
FFC0
ENDCHAR

STARTCHAR Theta
ENCODING 202
SWIDTH 720 0
DWIDTH 14 0
BBX 10 11 2 0
BITMAP
3F00
6180
C0C0
C0C0
CCC0
CCC0
CCC0
C0C0
C0C0
6180
3F00
ENDCHAR

STARTCHAR multiply
ENCODING 203
SWIDTH 720 0
DWIDTH 14 0
BBX 10 6 2 2
BITMAP
C0C0
3300
0C00
0C00
3300
C0C0
ENDCHAR

STARTCHAR Lambda
ENCODING 204
SWIDTH 720 0
DWIDTH 14 0
BBX 14 11 0 0
BITMAP
0300
0300
0780
0780
0CC0
0CC0
1860
1860
3030
3030
FCFC
ENDCHAR

STARTCHAR arrowdblboth
ENCODING 205
SWIDTH 720 0
DWIDTH 14 0
BBX 14 7 0 2
BITMAP
1020
2010
7FF8
C00C
7FF8
2010
1020
ENDCHAR

STARTCHAR arrowdblright
ENCODING 206
SWIDTH 720 0
DWIDTH 14 0
BBX 13 7 0 2
BITMAP
0600
0180
FFE0
0038
FFE0
0180
0600
ENDCHAR

STARTCHAR equivalence
ENCODING 207
SWIDTH 720 0
DWIDTH 14 0
BBX 10 7 2 1
BITMAP
FFC0
0000
0000
FFC0
0000
0000
FFC0
ENDCHAR

STARTCHAR Pi
ENCODING 208
SWIDTH 720 0
DWIDTH 14 0
BBX 14 11 0 0
BITMAP
FFFC
3030
3030
3030
3030
3030
3030
3030
3030
3030
FCFC
ENDCHAR

STARTCHAR Psi
ENCODING 209
SWIDTH 720 0
DWIDTH 14 0
BBX 10 11 2 0
BITMAP
3F00
0C00
CCC0
CCC0
CCC0
CCC0
CCC0
3F00
0C00
0C00
3F00
ENDCHAR

STARTCHAR Sigma
ENCODING 211
SWIDTH 720 0
DWIDTH 14 0
BBX 12 11 1 0
BITMAP
FFF0
6030
3030
1800
0C00
0600
0C00
1800
3030
6030
FFF0
ENDCHAR

STARTCHAR radical
ENCODING 214
SWIDTH 720 0
DWIDTH 14 0
BBX 14 16 0 -2
BITMAP
000C
000C
0018
0018
0030
0030
C060
C060
60C0
6180
3180
3300
1B00
1E00
0E00
0C00
ENDCHAR

STARTCHAR Omega
ENCODING 215
SWIDTH 720 0
DWIDTH 14 0
BBX 10 11 2 0
BITMAP
3F00
6180
C0C0
C0C0
C0C0
C0C0
C0C0
6180
3300
3300
F3C0
ENDCHAR

STARTCHAR Xi
ENCODING 216
SWIDTH 720 0
DWIDTH 14 0
BBX 10 11 2 0
BITMAP
FFC0
C0C0
C0C0
0000
3300
3F00
3300
0000
C0C0
C0C0
FFC0
ENDCHAR

STARTCHAR Upsilon1
ENCODING 217
SWIDTH 720 0
DWIDTH 14 0
BBX 14 11 0 0
BITMAP
E01C
3030
1860
0CC0
0CC0
0780
0300
0300
0300
0300
0FC0
ENDCHAR

STARTCHAR propersubset
ENCODING 218
SWIDTH 720 0
DWIDTH 14 0
BBX 10 9 2 1
BITMAP
1FC0
7000
4000
C000
C000
C000
4000
7000
1FC0
ENDCHAR

STARTCHAR propersuperset
ENCODING 219
SWIDTH 720 0
DWIDTH 14 0
BBX 10 9 2 1
BITMAP
FE00
0380
0080
00C0
00C0
00C0
0080
0380
FE00
ENDCHAR

STARTCHAR intersection
ENCODING 220
SWIDTH 720 0
DWIDTH 14 0
BBX 10 10 2 0
BITMAP
3F00
6180
C0C0
C0C0
C0C0
C0C0
C0C0
C0C0
C0C0
C0C0
ENDCHAR

STARTCHAR union
ENCODING 221
SWIDTH 720 0
DWIDTH 14 0
BBX 10 10 2 0
BITMAP
C0C0
C0C0
C0C0
C0C0
C0C0
C0C0
C0C0
C0C0
6180
3F00
ENDCHAR

STARTCHAR logicaland
ENCODING 222
SWIDTH 720 0
DWIDTH 14 0
BBX 12 11 1 0
BITMAP
0600
0600
0F00
1980
1980
30C0
30C0
6060
6060
C030
C030
ENDCHAR

STARTCHAR logicalor
ENCODING 223
SWIDTH 720 0
DWIDTH 14 0
BBX 12 11 1 0
BITMAP
C030
C030
6060
6060
30C0
30C0
1980
1980
0F00
0600
0600
ENDCHAR

STARTCHAR logicalnot
ENCODING 224
SWIDTH 720 0
DWIDTH 14 0
BBX 10 4 2 3
BITMAP
FFC0
00C0
00C0
00C0
ENDCHAR

STARTCHAR alpha
ENCODING 225
SWIDTH 720 0
DWIDTH 14 0
BBX 12 9 1 0
BITMAP
1F30
71F0
6060
C0C0
C0C0
C0C0
C0C0
63E0
3E70
ENDCHAR

STARTCHAR beta
ENCODING 226
SWIDTH 720 0
DWIDTH 14 0
BBX 12 15 1 -4
BITMAP
0780
1860
1860
3060
30C0
3780
6060
6030
6030
6C60
67C0
6000
C000
C000
C000
ENDCHAR

STARTCHAR chi
ENCODING 227
SWIDTH 720 0
DWIDTH 14 0
BBX 12 12 1 -3
BITMAP
3C30
0C60
0460
06C0
0780
0300
0700
0700
0D80
1980
30C0
F0F0
ENDCHAR

STARTCHAR delta
ENCODING 228
SWIDTH 720 0
DWIDTH 14 0
BBX 10 13 2 0
BITMAP
0FC0
1800
1800
0E00
3F00
6180
C0C0
C0C0
C0C0
C0C0
C0C0
6180
3F00
ENDCHAR

STARTCHAR epsilon
ENCODING 229
SWIDTH 720 0
DWIDTH 14 0
BBX 10 9 2 0
BITMAP
0FC0
3800
6000
C000
FFC0
C000
C000
7000
1FC0
ENDCHAR

STARTCHAR phi
ENCODING 230
SWIDTH 720 0
DWIDTH 14 0
BBX 12 16 1 -4
BITMAP
0300
0300
0300
0FC0
3360
6230
4630
C630
C620
C460
6CC0
3F80
0C00
0C00
0C00
0C00
ENDCHAR

STARTCHAR gamma
ENCODING 231
SWIDTH 720 0
DWIDTH 14 0
BBX 10 12 2 -3
BITMAP
C0C0
C0C0
6180
6180
3300
1200
1E00
0C00
0C00
1800
1800
3000
ENDCHAR

STARTCHAR eta
ENCODING 232
SWIDTH 720 0
DWIDTH 14 0
BBX 10 12 2 -3
BITMAP
EF80
38C0
30C0
60C0
6180
6180
E180
C180
C300
0300
0300
0300
ENDCHAR

STARTCHAR iota
ENCODING 233
SWIDTH 720 0
DWIDTH 14 0
BBX 6 9 4 0
BITMAP
F0
30
30
60
60
60
C0
CC
78
ENDCHAR

STARTCHAR theta
ENCODING 234
SWIDTH 720 0
DWIDTH 14 0
BBX 10 11 2 0
BITMAP
0F80
30C0
30C0
60C0
60C0
FFC0
C180
C180
C300
C300
7C00
ENDCHAR

STARTCHAR kappa
ENCODING 235
SWIDTH 720 0
DWIDTH 14 0
BBX 9 9 3 0
BITMAP
6180
6300
6600
6C00
7800
EC00
CC00
C600
C700
ENDCHAR

STARTCHAR lambda
ENCODING 236
SWIDTH 720 0
DWIDTH 14 0
BBX 10 11 2 0
BITMAP
3800
1800
0C00
1C00
1E00
3600
3300
6300
6300
C180
C1C0
ENDCHAR

STARTCHAR nu
ENCODING 238
SWIDTH 720 0
DWIDTH 14 0
BBX 10 9 2 0
BITMAP
F0C0
30C0
30C0
3180
3180
3300
3600
3C00
3800
ENDCHAR

STARTCHAR partialdiff
ENCODING 239
SWIDTH 720 0
DWIDTH 14 0
BBX 10 11 2 0
BITMAP
3E00
0380
00C0
3EC0
61C0
C0C0
C0C0
C0C0
C0C0
6180
3F00
ENDCHAR

STARTCHAR pi
ENCODING 240
SWIDTH 720 0
DWIDTH 14 0
BBX 12 9 1 0
BITMAP
FFF0
30C0
30C0
6180
6180
6180
C300
C300
C3C0
ENDCHAR

STARTCHAR psi
ENCODING 241
SWIDTH 720 0
DWIDTH 14 0
BBX 11 14 2 -3
BITMAP
0600
0600
6660
6660
6460
C460
CCC0
CCC0
CC80
6D80
3F00
1800
1800
1800
ENDCHAR

STARTCHAR rho
ENCODING 242
SWIDTH 720 0
DWIDTH 14 0
BBX 10 12 2 -3
BITMAP
1F00
3180
60C0
60C0
60C0
C0C0
C180
E380
DE00
C000
C000
C000
ENDCHAR

STARTCHAR sigma
ENCODING 243
SWIDTH 720 0
DWIDTH 14 0
BBX 12 9 1 0
BITMAP
1FF0
7980
60C0
E0C0
C0C0
C1C0
C180
6780
3E00
ENDCHAR

STARTCHAR tau
ENCODING 244
SWIDTH 720 0
DWIDTH 14 0
BBX 10 9 2 0
BITMAP
FFC0
0C00
0C00
1800
1800
1800
3000
30C0
1F80
ENDCHAR

STARTCHAR florin
ENCODING 246
SWIDTH 720 0
DWIDTH 14 0
BBX 11 14 1 -3
BITMAP
01E0
0300
0600
0600
3FE0
0600
0600
0C00
0C00
0C00
0C00
1800
1800
F000
ENDCHAR

STARTCHAR omega
ENCODING 247
SWIDTH 720 0
DWIDTH 14 0
BBX 11 9 2 0
BITMAP
6060
6060
6660
C660
C660
CCC0
CCC0
CC80
7380
ENDCHAR

STARTCHAR xi
ENCODING 248
SWIDTH 720 0
DWIDTH 14 0
BBX 10 15 2 -4
BITMAP
3FC0
0600
1800
3000
3800
0F00
3800
6000
C000
E000
7F80
00C0
00C0
00C0
0300
ENDCHAR

STARTCHAR upsilon
ENCODING 249
SWIDTH 720 0
DWIDTH 14 0
BBX 10 9 2 0
BITMAP
F0C0
60C0
60C0
C0C0
C0C0
C180
C180
6300
3E00
ENDCHAR

STARTCHAR zeta
ENCODING 250
SWIDTH 720 0
DWIDTH 14 0
BBX 10 15 2 -4
BITMAP
3FC0
00C0
0300
0E00
1800
3000
6000
C000
C000
6000
3F80
00C0
00C0
00C0
0300
ENDCHAR

STARTCHAR arrowleft
ENCODING 251
SWIDTH 720 0
DWIDTH 14 0
BBX 13 7 1 1
BITMAP
0700
1C00
7000
FFF8
7000
1C00
0700
ENDCHAR

STARTCHAR arrowup
ENCODING 252
SWIDTH 720 0
DWIDTH 14 0
BBX 10 14 2 -2
BITMAP
0C00
1E00
3F00
6D80
CCC0
0C00
0C00
0C00
0C00
0C00
0C00
0C00
0C00
0C00
ENDCHAR

STARTCHAR arrowright
ENCODING 253
SWIDTH 720 0
DWIDTH 14 0
BBX 13 7 0 1
BITMAP
0700
01C0
0070
FFF8
0070
01C0
0700
ENDCHAR

STARTCHAR arrowdown
ENCODING 254
SWIDTH 720 0
DWIDTH 14 0
BBX 10 14 2 -2
BITMAP
0C00
0C00
0C00
0C00
0C00
0C00
0C00
0C00
0C00
CCC0
6D80
3F00
1E00
0C00
ENDCHAR
ENDFONT
